<?xml version="1.0" standalone="no"?>
<!DOCTYPE svg PUBLIC "-//W3C//DTD SVG 20010904//EN"
 "http://www.w3.org/TR/2001/REC-SVG-20010904/DTD/svg10.dtd">
<svg version="1.0" xmlns="http://www.w3.org/2000/svg"
 width="263px" height="102px" viewBox="0 0 1200.000000 462.000000"
 preserveAspectRatio="xMidYMid meet">

<g transform="translate(0.000000,462.000000) scale(0.100000,-0.100000)"
fill="#000000" stroke="none">
<path d="M3124 4592 c-104 -49 -151 -185 -99 -285 13 -25 13 -32 0 -57 -34
-65 -5 -148 59 -171 l35 -13 -20 -24 c-21 -27 -25 -63 -9 -91 8 -16 5 -18 -40
-13 -42 4 -55 1 -84 -21 l-34 -27 -15 23 c-13 21 -13 25 9 50 68 79 -16 208
-116 178 -51 -15 -81 -51 -87 -105 -5 -39 -9 -46 -33 -51 -32 -7 -95 -69 -109
-108 -6 -16 -11 -41 -11 -56 0 -21 -8 -31 -36 -44 -63 -30 -79 -112 -34 -170
19 -24 19 -24 -6 -35 -22 -11 -28 -8 -53 20 -27 31 -28 35 -15 60 8 15 14 40
14 55 0 36 -33 89 -59 98 -26 8 -26 17 -1 40 27 24 43 80 37 127 -4 32 -1 43
19 63 28 28 32 79 9 112 -35 50 -123 46 -150 -7 -12 -23 -22 -30 -46 -30 -17
0 -47 -7 -66 -16 -125 -60 -105 -266 29 -299 25 -6 25 -7 11 -37 -20 -39 -11
-103 18 -134 17 -19 20 -26 10 -38 -49 -59 -18 -168 57 -197 20 -8 21 -11 10
-29 -7 -11 -19 -18 -26 -15 -8 3 -19 5 -26 5 -7 0 -18 18 -25 39 -33 113 -172
122 -217 15 -19 -45 -8 -89 32 -123 24 -22 31 -35 27 -51 -4 -15 -10 -19 -22
-14 -37 16 -150 16 -200 -1 -70 -23 -143 -91 -172 -160 -23 -55 -23 -55 -43
-36 -90 81 -219 35 -242 -86 -9 -48 26 -114 75 -141 60 -34 120 -26 172 24
l25 24 17 -38 c24 -54 83 -110 147 -140 200 -94 432 64 418 286 -4 56 -2 62
15 62 55 0 130 73 143 138 4 19 13 32 21 32 27 0 71 40 82 73 10 29 15 32 54
34 23 2 53 11 67 21 24 18 65 71 73 95 2 7 13 4 31 -10 35 -28 96 -38 143 -23
132 42 166 211 60 296 -33 26 -34 29 -20 50 l14 23 35 -21 c25 -15 46 -19 74
-15 l38 5 -3 -40 c-2 -24 -11 -47 -24 -59 -77 -72 6 -201 103 -157 25 12 37
12 66 2 67 -24 165 -10 209 30 22 20 31 20 31 0 0 -26 54 -72 93 -79 27 -5 37
-12 37 -25 0 -20 44 -60 65 -60 7 0 24 9 39 21 34 27 35 70 2 97 -17 13 -22
23 -15 33 5 8 9 29 9 47 0 28 3 32 26 32 16 0 39 13 60 34 l34 34 0 -52 c0
-31 8 -67 19 -89 18 -35 18 -37 0 -42 -10 -3 -30 -20 -44 -36 -29 -35 -33 -85
-10 -128 17 -34 77 -65 113 -58 18 4 35 -2 55 -19 21 -17 41 -24 73 -24 37 0
44 -3 44 -20 0 -77 94 -125 168 -86 48 25 67 83 48 148 l-8 27 38 -20 c82 -41
191 -13 241 62 23 35 28 53 28 104 l0 62 34 -10 c50 -13 103 6 143 52 18 21
53 47 78 58 55 24 96 70 110 124 30 110 -59 229 -172 229 -37 0 -52 6 -77 29
-25 23 -30 35 -25 55 16 65 -45 145 -118 153 -38 5 -45 10 -61 43 -9 20 -29
42 -43 48 -39 18 -98 15 -126 -8 l-25 -19 -6 46 c-4 38 -12 54 -41 80 -41 37
-72 48 -120 39 -93 -18 -144 -125 -96 -204 11 -18 20 -34 20 -36 0 -2 -18 6
-41 17 -37 18 -43 19 -80 4 -21 -8 -39 -12 -39 -9 0 15 16 30 38 37 28 8 62
60 62 93 0 35 -30 80 -62 93 -17 7 -47 9 -73 6 -52 -8 -65 4 -25 21 54 24 59
101 8 136 -30 22 -60 20 -91 -5 l-27 -20 -35 35 c-80 80 -203 48 -236 -62 -10
-35 -9 -48 6 -87 9 -25 27 -53 40 -61 22 -14 23 -17 9 -49 -30 -74 -6 -189 50
-233 17 -13 21 -23 15 -37 -7 -18 -4 -90 6 -141 4 -19 42 -44 65 -44 9 0 43
27 101 82 23 21 29 35 29 67 0 28 4 41 13 41 8 0 30 16 50 35 l37 36 0 -34 c0
-18 6 -39 13 -46 7 -8 8 -15 2 -17 -113 -43 -140 -181 -50 -252 l25 -20 -25
-43 -25 -44 0 40 c0 66 -51 115 -119 115 -44 0 -99 -52 -107 -100 -5 -31 -11
-39 -38 -47 l-33 -10 -1 48 c-3 155 -174 257 -313 186 l-45 -22 -15 35 -16 36
33 -4 c27 -3 40 2 64 26 42 42 41 84 -2 126 l-33 31 23 22 c12 13 25 36 28 52
5 21 13 30 33 34 43 9 107 62 130 109 45 93 13 216 -71 274 -54 37 -152 45
-214 16z m1175 -520 c11 -20 9 -22 -13 -22 -13 0 -31 -3 -39 -6 -10 -3 -16 4
-20 23 -4 22 0 33 21 50 l27 21 6 -22 c3 -12 12 -32 18 -44z m-186 -100 c31
-5 31 -3 15 -53 -26 -89 57 -209 144 -209 23 0 23 0 -3 -23 -15 -12 -32 -31
-38 -42 -9 -18 -10 -18 -11 -2 0 29 -79 106 -121 119 -31 9 -38 15 -34 30 3
10 7 26 10 36 7 26 -11 82 -37 109 -21 23 -21 23 -2 38 10 8 26 12 34 8 8 -3
27 -8 43 -11z m326 -257 c11 -20 34 -43 50 -53 28 -16 30 -20 24 -62 -3 -25
-7 -46 -8 -48 -7 -9 -54 24 -53 37 3 41 -4 62 -33 90 -17 17 -40 31 -52 31
-20 0 -19 2 8 19 40 26 40 26 64 -14z m-1761 -126 c-7 -19 -13 -35 -14 -37 -1
-2 -11 2 -22 9 -18 11 -18 13 12 40 17 15 32 26 33 25 2 -1 -3 -18 -9 -37z
m1554 -112 c-12 -25 -22 -49 -22 -56 0 -6 -9 -11 -20 -11 -18 0 -18 2 6 38 14
20 28 50 31 65 4 20 9 25 16 18 8 -8 4 -24 -11 -54z"/>
<path d="M2736 4588 c-90 -25 -148 -130 -125 -225 46 -180 312 -180 358 1 35
139 -93 262 -233 224z"/>
<path d="M2270 4508 c-49 -33 -69 -91 -49 -144 37 -98 170 -112 223 -24 45 77
-5 177 -94 187 -36 4 -52 0 -80 -19z"/>
<path d="M1614 4474 c-34 -51 25 -121 78 -93 30 16 38 28 38 61 0 36 -24 58
-65 58 -26 0 -39 -6 -51 -26z"/>
<path d="M1825 4284 c-27 -29 -34 -91 -13 -112 9 -9 0 -10 -39 -6 -65 8 -114
-9 -152 -51 -59 -68 -61 -158 -5 -225 35 -41 74 -60 124 -60 l42 0 -26 -30
c-99 -118 -7 -310 149 -310 45 0 99 24 134 59 72 72 76 181 9 257 -41 47 -77
64 -133 64 l-47 0 21 33 c41 67 34 153 -16 209 -15 17 -14 18 18 18 67 0 113
62 89 120 -27 65 -110 83 -155 34z"/>
<path d="M471 4204 c-12 -15 -21 -32 -21 -39 0 -23 41 -65 64 -65 38 0 66 28
66 65 0 62 -71 87 -109 39z"/>
<path d="M3354 4150 c-41 -16 -74 -68 -74 -117 0 -39 5 -50 39 -84 32 -32 46
-39 77 -39 51 0 83 18 111 59 28 42 29 86 3 128 -32 53 -99 76 -156 53z"/>
<path d="M1131 4099 c-18 -4 -50 -23 -69 -43 -31 -30 -36 -43 -40 -93 -5 -74
22 -119 90 -147 58 -24 106 -16 153 25 119 105 22 291 -134 258z"/>
<path d="M6161 4035 c-233 -53 -377 -251 -358 -494 10 -121 66 -249 139 -318
103 -97 282 -143 430 -112 104 22 238 98 238 136 0 22 -39 73 -56 73 -9 0 -35
-13 -58 -29 -147 -102 -345 -91 -461 24 -134 135 -135 386 -1 520 105 106 277
123 428 43 67 -35 86 -34 111 9 24 41 14 61 -50 95 -106 57 -250 78 -362 53z"/>
<path d="M8821 4035 c-281 -63 -428 -345 -330 -633 86 -253 385 -372 646 -256
66 28 133 80 133 101 0 21 -39 73 -54 73 -8 0 -40 -16 -72 -35 -195 -118 -416
-68 -509 114 -77 153 -46 347 73 451 105 93 278 102 422 24 58 -31 78 -29 103
13 24 41 14 61 -50 95 -106 57 -250 78 -362 53z"/>
<path d="M7003 4018 c-18 -24 -315 -857 -311 -875 3 -15 14 -18 58 -18 l55 0
45 125 46 125 173 0 173 0 43 -119 c24 -65 47 -122 53 -128 5 -5 31 -8 58 -6
37 2 50 7 52 21 4 18 -293 851 -311 875 -5 7 -33 12 -67 12 -34 0 -61 -5 -67
-12z m77 -145 c0 -10 27 -96 60 -192 33 -96 60 -178 60 -183 0 -4 -60 -8 -134
-8 l-135 0 46 128 c25 70 55 160 67 200 20 68 36 93 36 55z"/>
<path d="M7580 4011 c-6 -13 -10 -171 -10 -444 0 -355 2 -426 14 -436 8 -7 36
-11 63 -9 l48 3 0 358 c0 196 1 357 2 357 0 0 19 -33 42 -72 22 -40 129 -201
238 -358 l198 -285 58 -3 c54 -3 58 -1 67 23 13 35 13 825 0 859 -8 22 -16 26
-49 26 -76 0 -71 28 -71 -363 l0 -350 -53 85 c-80 127 -407 601 -425 616 -9 6
-37 12 -64 12 -37 0 -50 -4 -58 -19z"/>
<path d="M9422 4018 c-9 -9 -12 -118 -12 -442 0 -237 4 -437 8 -444 7 -9 68
-12 273 -10 l264 3 3 44 c2 28 -1 47 -10 52 -7 5 -102 9 -210 9 l-198 0 0 145
0 145 149 0 c164 0 181 5 181 59 0 47 -12 51 -177 51 l-153 0 0 145 0 145 189
0 c211 0 215 1 209 67 l-3 38 -250 3 c-187 2 -254 -1 -263 -10z"/>
<path d="M10112 4017 c-9 -11 -12 -125 -10 -453 l3 -439 48 -3 c76 -5 77 -4
77 189 l0 169 98 0 97 0 77 -148 c120 -226 108 -212 173 -212 40 0 57 4 61 15
3 8 -38 96 -93 197 l-100 183 26 14 c141 74 179 304 68 419 -68 71 -90 77
-313 80 -165 3 -202 1 -212 -11z m391 -120 c65 -43 89 -151 49 -227 -31 -59
-86 -80 -214 -80 l-108 0 0 166 0 166 123 -3 c97 -3 129 -8 150 -22z"/>
<path d="M1294 3846 c-42 -42 -47 -100 -11 -141 66 -76 187 -32 187 69 -1 98
-107 141 -176 72z"/>
<path d="M614 3761 c-93 -57 -49 -201 61 -201 52 0 89 27 105 75 23 71 -30
145 -105 145 -16 0 -44 -9 -61 -19z"/>
<path d="M1504 3550 c-33 -13 -83 -77 -90 -116 -9 -50 9 -104 51 -144 30 -29
43 -34 94 -38 73 -5 121 20 151 79 56 109 -16 230 -135 228 -27 0 -59 -4 -71
-9z"/>
<path d="M1227 3407 c-103 -83 1 -249 121 -190 52 25 77 78 62 132 -14 54 -50
81 -109 81 -33 0 -54 -7 -74 -23z"/>
<path d="M1841 3374 c-12 -15 -21 -32 -21 -39 0 -7 9 -24 21 -39 40 -50 109
-24 109 42 0 59 -72 83 -109 36z"/>
<path d="M768 3304 c-78 -42 -76 -178 2 -219 90 -46 190 11 190 110 0 99 -104
158 -192 109z"/>
<path d="M35 3145 c-34 -33 -34 -87 0 -120 59 -60 161 -2 141 80 -16 64 -96
86 -141 40z"/>
<path d="M1055 2869 c-124 -38 -145 -211 -33 -279 69 -42 165 -17 209 52 16
26 19 45 16 91 -3 49 -8 62 -37 92 -19 19 -50 40 -70 45 -40 11 -45 11 -85 -1z"/>
<path d="M7495 2763 c-97 -33 -175 -137 -175 -233 0 -112 55 -172 241 -263
154 -75 189 -106 196 -169 5 -53 -11 -85 -57 -116 -31 -21 -44 -23 -110 -20
-74 3 -99 12 -188 64 l-33 19 -30 -33 c-42 -47 -36 -70 31 -110 74 -44 139
-62 224 -62 87 0 128 11 188 49 59 37 97 102 105 175 13 127 -42 205 -193 275
-200 92 -244 127 -244 193 0 116 161 167 299 95 29 -15 59 -27 67 -27 18 0 56
74 48 94 -3 9 -36 30 -72 48 -56 28 -77 33 -156 35 -66 2 -105 -2 -141 -14z"/>
<path d="M10648 2765 c-237 -65 -377 -303 -325 -552 50 -236 217 -373 457
-373 108 0 192 24 278 80 71 45 78 69 37 114 l-26 28 -42 -27 c-113 -70 -202
-92 -304 -74 -167 29 -274 167 -274 354 0 142 62 254 175 313 46 24 61 27 156
27 101 0 108 -2 183 -37 42 -21 84 -35 91 -32 7 3 22 20 32 39 18 33 18 35 -1
56 -27 29 -102 66 -172 84 -69 18 -200 18 -265 0z"/>
<path d="M5873 2759 c-18 -18 -19 -879 -1 -897 13 -13 76 -16 95 -4 9 6 13 58
15 182 l3 175 96 3 97 3 92 -173 c50 -95 99 -179 108 -185 22 -18 97 -16 112
2 10 12 -4 44 -75 177 -49 90 -94 172 -102 184 -12 19 -10 23 30 48 74 47 116
128 117 227 0 111 -46 191 -137 235 -56 28 -63 29 -248 32 -146 3 -193 1 -202
-9z m384 -126 c53 -28 75 -74 71 -148 -3 -44 -10 -70 -27 -94 -36 -50 -73 -61
-206 -61 l-115 0 0 158 c0 87 3 162 8 167 4 4 58 5 120 2 83 -4 122 -10 149
-24z"/>
<path d="M6668 2759 c-17 -9 -18 -41 -18 -447 0 -327 3 -441 12 -450 9 -9 81
-12 264 -12 280 0 278 -1 272 67 l-3 38 -207 3 -208 2 0 150 0 150 155 0 c142
0 155 1 165 19 14 28 12 57 -6 75 -13 13 -42 16 -165 16 l-149 0 0 145 0 145
198 2 197 3 3 40 c5 64 0 65 -262 65 -138 0 -238 -5 -248 -11z"/>
<path d="M8072 2758 c-9 -9 -12 -124 -12 -454 0 -394 2 -443 16 -448 9 -3 127
-6 263 -6 179 0 250 3 259 12 16 16 16 70 0 86 -9 9 -70 12 -215 12 l-203 0 0
150 0 150 163 2 162 3 3 38 c5 64 -1 67 -174 67 l-155 0 3 143 3 142 189 3
c119 1 194 7 203 13 18 16 16 64 -3 83 -13 14 -50 16 -253 16 -171 0 -240 -3
-249 -12z"/>
<path d="M9018 2753 c-22 -25 -320 -852 -316 -877 2 -17 11 -22 49 -24 59 -4
66 6 115 146 l39 112 175 0 175 0 39 -113 c48 -139 56 -149 115 -145 38 3 47
7 49 25 4 26 -293 851 -315 876 -11 11 -31 17 -63 17 -32 0 -52 -6 -62 -17z
m156 -405 l45 -128 -139 0 -139 0 63 183 c34 100 66 193 70 207 6 21 11 12 31
-55 13 -44 44 -137 69 -207z"/>
<path d="M9597 2755 c-16 -16 -17 -52 -15 -451 3 -374 5 -436 18 -444 21 -14
84 -12 98 2 8 8 12 64 12 185 l0 173 94 0 c63 0 97 -4 104 -12 5 -7 47 -83 92
-168 46 -85 90 -163 98 -172 21 -25 110 -25 119 -1 7 17 -30 93 -132 278 l-56
100 23 15 c80 54 123 122 134 213 13 113 -48 226 -146 271 -39 17 -71 20 -236
24 -170 4 -192 2 -207 -13z m385 -122 c54 -32 73 -67 73 -138 0 -71 -17 -103
-75 -142 -30 -21 -45 -23 -151 -23 l-119 0 0 158 c0 87 3 162 8 167 4 4 58 5
121 2 82 -5 121 -11 143 -24z"/>
<path d="M11275 2754 c-14 -14 -15 -63 -13 -450 3 -374 5 -436 18 -444 21 -14
84 -12 98 2 8 8 12 67 12 200 l0 188 240 0 240 0 0 -188 c0 -205 2 -212 56
-212 69 0 64 -34 64 454 0 330 -3 445 -12 454 -16 16 -70 15 -91 0 -14 -11
-17 -39 -19 -203 l-3 -190 -237 -3 -238 -2 0 194 c0 183 -1 196 -19 206 -29
15 -77 12 -96 -6z"/>
<path d="M401 2737 c-69 -24 -98 -116 -54 -175 39 -53 134 -60 177 -13 80 89
-10 227 -123 188z"/>
<path d="M777 2702 c-37 -41 -7 -104 50 -104 55 0 80 75 36 110 -24 18 -67 15
-86 -6z"/>
<path d="M1615 2666 c-65 -28 -113 -116 -100 -184 27 -150 224 -194 313 -69
21 30 22 30 22 8 0 -14 16 -40 42 -65 26 -26 41 -51 42 -67 1 -24 -1 -26 -23
-18 -29 11 -59 3 -88 -24 l-22 -20 -10 24 c-47 122 -221 87 -221 -44 0 -31 7
-46 34 -73 29 -29 41 -34 81 -34 41 0 52 5 80 34 l32 35 11 -24 c10 -21 8 -24
-24 -29 -20 -4 -51 -23 -74 -45 l-39 -37 -22 29 c-22 31 -74 57 -111 57 -12 0
-42 -10 -66 -21 -76 -37 -103 -135 -57 -206 46 -70 156 -84 217 -27 21 20 32
25 35 16 10 -27 59 -75 90 -88 51 -22 112 -17 158 11 57 35 71 32 79 -13 11
-73 97 -121 166 -92 45 19 70 60 70 115 0 40 -5 52 -35 82 -28 28 -33 38 -25
53 14 27 12 105 -4 143 -7 18 -27 45 -44 61 l-31 29 29 34 c34 39 41 98 15
137 -12 18 -14 33 -6 65 15 67 -9 129 -62 161 -59 36 -155 20 -191 -31 -14
-21 -15 -21 -31 17 -40 97 -139 140 -230 100z"/>
<path d="M1304 2591 c-85 -52 -58 -188 42 -207 73 -14 134 38 134 113 0 38 -5
50 -34 79 -40 40 -92 46 -142 15z"/>
<path d="M1002 2493 c-47 -23 -75 -67 -80 -128 -8 -96 57 -169 152 -169 122
-2 198 118 144 224 -42 83 -134 114 -216 73z"/>
<path d="M424 2127 c-20 -17 -27 -33 -27 -57 0 -39 40 -80 79 -80 35 0 74 42
74 80 0 38 -39 80 -74 80 -14 0 -37 -11 -52 -23z"/>
<path d="M1159 2025 c-36 -19 -63 -78 -55 -119 4 -18 20 -46 37 -62 25 -24 39
-29 80 -29 44 0 54 4 80 33 23 26 29 42 29 78 0 39 -5 51 -34 80 -27 27 -42
34 -72 34 -22 -1 -51 -7 -65 -15z"/>
<path d="M758 1933 c-32 -20 -68 -81 -68 -117 0 -94 96 -166 182 -137 112 37
133 192 35 251 -40 24 -112 26 -149 3z"/>
<path d="M1440 1769 c-108 -44 -160 -169 -111 -274 70 -152 289 -158 361 -10
33 68 26 160 -16 212 -56 70 -159 102 -234 72z"/>
<path d="M1880 1700 c-50 -50 -15 -134 55 -134 48 0 79 32 79 80 0 66 -87 101
-134 54z"/>
<path d="M2148 1666 c-75 -27 -121 -74 -135 -138 -5 -26 -7 -27 -52 -21 -58 7
-104 -14 -126 -57 -53 -102 53 -208 155 -155 16 8 34 24 40 36 11 20 12 19 45
-9 18 -16 39 -32 45 -34 10 -3 10 -9 1 -25 -15 -30 -14 -72 5 -108 15 -28 14
-30 -11 -48 -105 -77 -47 -247 85 -247 41 0 92 29 116 65 25 38 23 109 -5 145
l-22 30 32 38 32 38 40 -20 c33 -16 46 -18 79 -9 l39 11 -6 -52 c-4 -28 -2
-63 4 -78 10 -26 9 -28 -30 -38 -42 -12 -114 -69 -124 -100 -4 -12 -19 -19
-51 -23 -29 -3 -55 -14 -72 -29 -15 -14 -45 -30 -68 -36 -84 -24 -145 -123
-130 -209 22 -121 158 -188 266 -133 58 30 93 81 98 145 4 53 5 54 26 39 11
-8 37 -19 56 -24 34 -9 35 -11 35 -59 0 -39 5 -55 24 -75 78 -83 201 -34 201
80 0 28 -8 44 -35 71 l-35 35 20 33 c32 52 37 124 11 177 -25 54 -26 56 -3 60
9 2 27 -9 40 -24 13 -15 38 -32 55 -39 30 -10 32 -15 29 -45 -2 -19 1 -48 8
-64 14 -34 58 -70 85 -70 12 0 15 -5 10 -17 -4 -10 -9 -33 -12 -51 -5 -28 -10
-32 -35 -32 -61 0 -118 -59 -118 -123 0 -18 -8 -28 -29 -36 -36 -16 -87 -68
-100 -104 -33 -88 17 -204 102 -236 36 -14 108 -14 144 0 90 34 137 152 98
245 -14 34 -13 38 5 64 11 15 20 35 20 44 0 12 11 16 48 16 29 0 59 8 80 20
l32 20 0 -26 c0 -13 -9 -42 -20 -64 -11 -22 -20 -55 -20 -74 0 -30 -4 -35 -30
-41 -69 -15 -91 -95 -41 -146 39 -39 82 -39 121 -1 25 25 31 27 52 16 68 -35
145 -24 205 29 61 54 79 129 48 204 -19 45 -19 44 8 38 12 -3 36 -7 52 -8 19
-2 44 -18 66 -40 29 -29 45 -37 74 -37 47 0 71 13 90 50 19 37 19 80 -1 108
-10 14 -12 27 -6 38 7 12 11 7 20 -23 6 -21 22 -51 35 -67 22 -27 23 -32 10
-58 -9 -17 -12 -40 -8 -57 18 -81 118 -110 177 -51 25 25 29 37 27 73 -3 43 5
67 21 67 4 0 6 -9 3 -19 -3 -10 4 -40 16 -65 14 -34 16 -46 7 -46 -20 0 -46
-34 -46 -62 0 -55 77 -81 112 -38 10 12 18 31 18 41 0 15 7 19 33 19 47 0 99
30 122 70 15 26 27 36 50 37 69 5 113 80 82 141 l-15 31 27 -20 c34 -25 95
-40 135 -32 102 19 166 93 166 192 0 47 2 51 28 57 99 21 152 70 187 174 30
88 31 106 6 146 -26 42 -146 104 -201 104 -38 0 -40 2 -40 31 0 85 -90 140
-171 105 -14 -6 -19 2 -29 43 -6 28 -25 68 -40 89 -36 50 -118 92 -179 92 -44
0 -46 1 -47 31 -3 88 -97 138 -174 92 -75 -44 -70 -162 8 -198 24 -11 28 -20
11 -30 -5 -4 -20 4 -33 18 -12 13 -39 30 -60 37 -72 23 -166 -37 -166 -107 0
-19 -5 -23 -34 -23 -36 0 -81 -29 -91 -59 -4 -13 -13 -16 -34 -13 -20 3 -35
-2 -48 -15 -11 -11 -39 -23 -63 -26 -43 -6 -100 -48 -100 -74 0 -17 -4 -17
-42 7 -39 23 -105 35 -152 26 -20 -4 -58 -22 -86 -41 -47 -32 -52 -33 -78 -19
-15 7 -48 14 -74 14 -33 0 -58 7 -82 24 -20 13 -51 27 -71 30 -37 7 -110 -8
-120 -24 -11 -18 -25 -10 -39 23 -24 56 -61 82 -117 81 -36 0 -49 3 -49 14 0
54 -76 108 -141 99 -37 -5 -37 -4 -28 20 36 94 -31 217 -135 248 -60 18 -70
18 -118 1z m1739 -465 c-36 -43 -51 -95 -44 -155 6 -51 6 -51 -9 -20 -18 36
-61 64 -102 64 -26 0 -29 3 -28 28 0 15 11 37 22 48 18 18 30 21 68 17 39 -5
51 -2 71 17 14 13 25 30 25 39 0 11 3 12 11 4 9 -9 5 -19 -14 -42z m649 -79
l40 -38 -18 -39 c-13 -27 -17 -58 -16 -98 3 -54 2 -58 -22 -64 -14 -3 -37 -12
-51 -19 -24 -12 -28 -11 -50 12 -67 72 -161 72 -228 0 -36 -38 -41 -122 -11
-170 l22 -36 -25 0 c-14 0 -35 -11 -48 -24 l-23 -24 -21 36 c-21 37 -21 37 -2
75 15 28 18 49 14 85 l-6 47 52 25 c58 28 92 71 110 138 9 34 16 42 34 42 21
0 23 -5 23 -44 0 -121 169 -152 216 -39 18 43 11 83 -23 123 -13 16 -22 34
-18 40 8 14 7 15 51 -28z m-916 -149 c0 -17 3 -38 6 -46 4 -13 -2 -14 -38 -10
-24 3 -43 6 -44 7 0 0 1 19 3 42 5 39 6 40 39 40 31 -1 34 -3 34 -33z m242
-71 c-43 -41 -59 -101 -40 -150 14 -37 14 -40 -7 -64 l-23 -26 -4 49 c-3 31
-16 67 -36 99 -29 47 -30 50 -11 50 50 0 109 63 109 117 0 13 6 9 21 -15 l21
-32 -30 -28z m-648 -111 c19 -12 50 -25 69 -28 33 -5 34 -6 27 -44 -4 -21 -5
-50 -2 -64 4 -23 1 -25 -30 -25 -19 0 -43 -7 -54 -15 -27 -21 -34 -19 -34 10
0 57 -63 125 -116 125 -18 0 -20 6 -20 60 1 53 3 60 21 60 11 0 26 4 34 9 11
7 22 -1 42 -28 15 -21 43 -48 63 -60z m1173 -191 c12 -22 20 -40 18 -40 -2 0
-15 4 -29 9 -15 6 -37 6 -55 1 -27 -8 -31 -6 -31 11 0 11 -4 28 -9 37 -8 15
-3 17 38 19 44 2 47 0 68 -37z"/>
<path d="M75 1495 c-34 -33 -34 -87 0 -120 53 -54 145 -16 145 60 0 49 -36 85
-85 85 -25 0 -44 -8 -60 -25z"/>
<path d="M5870 1510 c-13 -8 -15 -56 -15 -332 0 -385 2 -397 95 -489 47 -47
68 -61 124 -78 201 -62 392 16 456 187 18 49 20 78 20 381 0 347 1 341 -43
341 -41 -1 -42 -6 -47 -353 l-5 -334 -30 -49 c-82 -134 -323 -149 -424 -28
-48 59 -51 87 -51 422 0 269 -2 313 -16 326 -17 18 -42 20 -64 6z"/>
<path d="M6786 1504 c-14 -14 -16 -68 -16 -444 0 -376 2 -430 16 -444 16 -17
33 -20 58 -10 14 5 16 34 16 220 l0 214 79 0 78 0 129 -215 c120 -201 131
-215 162 -221 23 -4 38 -2 48 7 12 13 -6 46 -123 239 -75 124 -136 230 -136
235 0 6 57 99 127 208 102 159 125 202 115 213 -16 19 -53 18 -77 -3 -11 -10
-70 -100 -132 -200 l-113 -183 -78 0 -79 0 0 194 c0 168 -2 195 -16 200 -25
10 -42 7 -58 -10z"/>
<path d="M833 1439 c-44 -13 -73 -57 -73 -112 0 -56 27 -92 80 -108 53 -16
107 10 134 65 17 36 18 43 5 79 -22 64 -81 94 -146 76z"/>
<path d="M1296 1390 c-61 -19 -116 -95 -116 -160 0 -24 -4 -30 -20 -30 -28 0
-70 -23 -99 -54 -34 -36 -40 -118 -12 -163 62 -99 200 -94 250 10 12 24 21 51
21 60 0 11 8 17 24 17 95 0 178 102 160 197 -9 47 -66 110 -112 123 -43 11
-56 11 -96 0z"/>
<path d="M1679 1311 c-16 -13 -24 -30 -24 -49 0 -27 -7 -34 -55 -59 -71 -38
-112 -100 -118 -182 -3 -35 1 -70 10 -91 10 -25 12 -44 5 -67 -7 -24 -5 -40 9
-69 37 -76 118 -93 183 -39 16 14 39 25 50 25 12 0 38 7 59 16 154 64 185 276
55 383 -21 18 -47 34 -58 37 -17 4 -20 12 -17 43 3 31 0 42 -19 55 -31 21 -52
20 -80 -3z"/>
<path d="M610 812 c-58 -58 -45 -142 28 -185 69 -40 162 13 162 92 0 80 -40
121 -120 121 -32 0 -48 -6 -70 -28z"/>
<path d="M1109 681 c-31 -31 -36 -59 -17 -94 28 -54 89 -63 132 -21 35 36 34
77 -3 115 -38 38 -74 38 -112 0z"/>
<path d="M1892 390 c-19 -12 -40 -37 -49 -57 -30 -73 22 -153 101 -153 72 0
117 41 118 109 0 48 -15 77 -55 101 -41 25 -74 25 -115 0z"/>
<path d="M2283 346 c-114 -52 -78 -225 47 -228 91 -3 151 83 116 165 -26 62
-100 91 -163 63z"/>
<path d="M3575 340 c-52 -16 -87 -62 -93 -121 -6 -66 15 -108 70 -139 92 -52
208 17 208 123 0 96 -93 165 -185 137z"/>
<path d="M3155 125 c-17 -16 -25 -35 -25 -58 0 -48 25 -67 88 -67 47 0 53 3
67 30 42 82 -65 161 -130 95z"/>
</g>
</svg>
