<svg id="Group_136" data-name="Group 136" xmlns="http://www.w3.org/2000/svg" xmlns:xlink="http://www.w3.org/1999/xlink" width="120" height="37" viewBox="0 0 120 37">
  <defs>
    <linearGradient id="linear-gradient" y1="0.317" x2="0.768" y2="0.87" gradientUnits="objectBoundingBox">
      <stop offset="0" stop-color="#f8661e"/>
      <stop offset="1" stop-color="#f89020"/>
    </linearGradient>
    <linearGradient id="linear-gradient-2" x1="1" y1="0.234" x2="0.25" y2="0.843" gradientUnits="objectBoundingBox">
      <stop offset="0" stop-color="#fce776"/>
      <stop offset="1" stop-color="#f7d525"/>
    </linearGradient>
    <linearGradient id="linear-gradient-3" x1="0.5" x2="0.5" y2="1" gradientUnits="objectBoundingBox">
      <stop offset="0" stop-color="#00528a"/>
      <stop offset="1" stop-color="#016ab1"/>
    </linearGradient>
    <linearGradient id="linear-gradient-4" x1="0.101" y1="0.289" x2="0.753" y2="0.842" gradientUnits="objectBoundingBox">
      <stop offset="0" stop-color="#aedf48"/>
      <stop offset="1" stop-color="#96cd41"/>
    </linearGradient>
  </defs>
  <text id="SECT_RS" data-name="SECT   RS" transform="translate(0 28)" fill="#03192b" font-size="25" font-family="Poppins, sans-serif"><tspan x="0" y="0" xml:space="preserve">SECT   RS</tspan></text>
  <g id="Group_39" data-name="Group 39" transform="translate(64.397 5.877)">
    <g id="Group_37" data-name="Group 37">
      <path id="Path_1" data-name="Path 1" d="M2245.653-514.876v5.264l7.3,4.321,4.529-2.623Z" transform="translate(-2233.828 514.876)" fill="url(#linear-gradient)"/>
      <path id="Path_5" data-name="Path 5" d="M2257.477-514.876v5.264l-7.128,4.16-4.7-2.462Z" transform="translate(-2245.652 514.876)" fill="url(#linear-gradient-2)"/>
      <path id="Path_3" data-name="Path 3" d="M0,0V5.322L7.022,9.527l4.626-2.489Z" transform="translate(23.833 20.33) rotate(120)" fill="#5dc5f0"/>
      <path id="Path_2" data-name="Path 2" d="M2267.021-499.318l-4.546,2.506v8.138l4.546,2.891Z" transform="translate(-2243.371 506.297)" fill="url(#linear-gradient-3)"/>
      <path id="Path_4" data-name="Path 4" d="M2262.476-499.318l4.545,2.413.12,8.256-4.665,2.366Z" transform="translate(-2262.411 506.297)" fill="#2c8e3d"/>
      <path id="Path_6" data-name="Path 6" d="M0,0V5.195L7.28,9.3l4.8-2.43Z" transform="translate(12.076 26.89) rotate(-180)" fill="url(#linear-gradient-4)"/>
    </g>
    <g id="Group_38" data-name="Group 38" transform="translate(6.572 7.485)" style="mix-blend-mode: normal;isolation: isolate">
      <path id="Path_1-2" data-name="Path 1" d="M2245.653-514.876v2.36l3.272,1.938,2.031-1.176Z" transform="translate(-2240.35 514.876)" fill="#d1d1d1"/>
      <path id="Path_5-2" data-name="Path 5" d="M2250.956-514.876v2.361l-3.2,1.866-2.106-1.1Z" transform="translate(-2245.653 514.876)" fill="#d1d1d1"/>
      <path id="Path_3-2" data-name="Path 3" d="M0,0V2.387L3.149,4.273,5.224,3.156Z" transform="translate(10.688 9.117) rotate(120)" fill="#d1d1d1"/>
      <path id="Path_2-2" data-name="Path 2" d="M2264.514-499.318l-2.038,1.124v3.649l2.038,1.3Z" transform="translate(-2253.907 502.448)" fill="#d1d1d1"/>
      <path id="Path_4-2" data-name="Path 4" d="M2262.476-499.318l2.039,1.082.054,3.7-2.093,1.061Z" transform="translate(-2262.447 502.448)" fill="#d1d1d1"/>
      <path id="Path_6-2" data-name="Path 6" d="M0,0V2.33L3.265,4.171l2.151-1.09Z" transform="translate(5.416 12.059) rotate(-180)" fill="#d1d1d1"/>
    </g>
  </g>
</svg>
